<svg xmlns="http://www.w3.org/2000/svg" width="512" height="512" viewBox="0 0 512 512"><title>وريث السيف</title><desc>Adapted from Rune sword icon by Lorc, CC BY 3.0. Original Mangaro metalwork, frame, inlays and composition. Source: https://game-icons.net/1x1/lorc/rune-sword.html</desc><defs>
      <linearGradient id="gold" x1="0" y1="0" x2=".85" y2="1"><stop stop-color="#f7e9b2"/><stop offset=".18" stop-color="#8f693a"/><stop offset=".38" stop-color="#e6c67b"/><stop offset=".55" stop-color="#fff4d1"/><stop offset=".7" stop-color="#957044"/><stop offset="1" stop-color="#d5ad65"/></linearGradient>
      <linearGradient id="silver" x1="0" y1="0" x2="1" y2="1"><stop stop-color="#ece8ee"/><stop offset=".35" stop-color="#637281"/><stop offset=".48" stop-color="#f6eddd"/><stop offset=".65" stop-color="#738a96"/><stop offset="1" stop-color="#d9d7cb"/></linearGradient>
      <linearGradient id="metal" x1=".1" y1="0" x2=".8" y2="1"><stop stop-color="#f3f0ef"/><stop offset=".18" stop-color="#7b93a5"/><stop offset=".33" stop-color="#f3f0ef"/><stop offset=".49" stop-color="#7b93a5"/><stop offset=".51" stop-color="#f3f0ef"/><stop offset=".74" stop-color="#3e445c"/><stop offset="1" stop-color="#7b93a5"/></linearGradient>
      <linearGradient id="gem" x1="0" y1="0" x2=".85" y2="1"><stop stop-color="#ece8ee"/><stop offset=".27" stop-color="#de5269"/><stop offset=".64" stop-color="#632736"/><stop offset="1" stop-color="#de5269"/></linearGradient>
      <linearGradient id="rose"><stop stop-color="#ffe4de"/><stop offset=".5" stop-color="#c27391"/><stop offset="1" stop-color="#f6bcc0"/></linearGradient>
      <radialGradient id="enamel" cx=".4" cy=".28" r=".85"><stop stop-color="#632736"/><stop offset=".5" stop-color="#151927"/><stop offset="1" stop-color="#070b14"/></radialGradient>
      <radialGradient id="portal"><stop stop-color="#ece8ee"/><stop offset=".25" stop-color="#de5269"/><stop offset="1" stop-color="#632736" stop-opacity=".3"/></radialGradient>
      <radialGradient id="halo"><stop stop-color="#de5269" stop-opacity=".24"/><stop offset=".65" stop-color="#de5269" stop-opacity=".08"/><stop offset="1" stop-color="#de5269" stop-opacity="0"/></radialGradient>
      <filter id="shadow" x="-.4" y="-.4" width="1.8" height="1.8"><feGaussianBlur stdDeviation="5"/></filter>
      <clipPath id="inner"><path d="M256 26L292 64L382 98L422 158L410 298Q382 404 256 476Q130 404 102 298L90 158L130 98L220 64Z" transform="translate(256 256) scale(.73) translate(-256 -256)"/></clipPath>
    </defs><circle cx="256" cy="254" r="249" fill="url(#halo)"/><path d="M256 26L292 64L382 98L422 158L410 298Q382 404 256 476Q130 404 102 298L90 158L130 98L220 64Z" fill="#000000" stroke="none" stroke-width="1" stroke-linejoin="round" stroke-linecap="round" transform="translate(0 7)" opacity=".6" filter="url(#shadow)"/><path d="M256 26L292 64L382 98L422 158L410 298Q382 404 256 476Q130 404 102 298L90 158L130 98L220 64Z" fill="url(#enamel)" stroke="#0b1019" stroke-width="12" stroke-linejoin="round" stroke-linecap="round" /><path d="M256 26L292 64L382 98L422 158L410 298Q382 404 256 476Q130 404 102 298L90 158L130 98L220 64Z" fill="none" stroke="url(#silver)" stroke-width="7" stroke-linejoin="round" stroke-linecap="round" /><path d="M256 26L292 64L382 98L422 158L410 298Q382 404 256 476Q130 404 102 298L90 158L130 98L220 64Z" fill="none" stroke="url(#gem)" stroke-width="2" stroke-linejoin="round" stroke-linecap="round" transform="translate(256 256) scale(.94) translate(-256 -256)"/><path d="M256 26L292 64L382 98L422 158L410 298Q382 404 256 476Q130 404 102 298L90 158L130 98L220 64Z" fill="url(#enamel)" stroke="url(#silver)" stroke-width="1.5" stroke-linejoin="round" stroke-linecap="round" transform="translate(256 256) scale(.82) translate(-256 -256)"/><path d="M256 26L292 64L382 98L422 158L410 298Q382 404 256 476Q130 404 102 298L90 158L130 98L220 64Z" fill="none" stroke="url(#gold)" stroke-width="1" stroke-linejoin="round" stroke-linecap="round" transform="translate(256 256) scale(.78) translate(-256 -256)" opacity=".5"/><g transform="translate(0 0) scale(1 1)"><path d="M116 317Q44 208 106 118Q91 191 154 226Q83 182 116 317Z" fill="url(#silver)" stroke="#0c0e19" stroke-width="2" stroke-linejoin="round" stroke-linecap="round" /><path d="M102 143Q149 189 118 238" fill="none" stroke="url(#gem)" stroke-width="2" stroke-linejoin="round" stroke-linecap="round" opacity=".75"/><path d="M109 177Q153 215 122 259" fill="none" stroke="url(#gem)" stroke-width="2" stroke-linejoin="round" stroke-linecap="round" opacity=".75"/><path d="M116 211Q157 241 126 280" fill="none" stroke="url(#gem)" stroke-width="2" stroke-linejoin="round" stroke-linecap="round" opacity=".75"/><path d="M123 245Q161 267 130 301" fill="none" stroke="url(#gem)" stroke-width="2" stroke-linejoin="round" stroke-linecap="round" opacity=".75"/><path d="M130 279Q165 293 134 322" fill="none" stroke="url(#gem)" stroke-width="2" stroke-linejoin="round" stroke-linecap="round" opacity=".75"/><path d="M137 313Q169 319 138 343" fill="none" stroke="url(#gem)" stroke-width="2" stroke-linejoin="round" stroke-linecap="round" opacity=".75"/></g><g transform="translate(512 0) scale(-1 1)"><path d="M116 317Q44 208 106 118Q91 191 154 226Q83 182 116 317Z" fill="url(#silver)" stroke="#0c0e19" stroke-width="2" stroke-linejoin="round" stroke-linecap="round" /><path d="M102 143Q149 189 118 238" fill="none" stroke="url(#gem)" stroke-width="2" stroke-linejoin="round" stroke-linecap="round" opacity=".75"/><path d="M109 177Q153 215 122 259" fill="none" stroke="url(#gem)" stroke-width="2" stroke-linejoin="round" stroke-linecap="round" opacity=".75"/><path d="M116 211Q157 241 126 280" fill="none" stroke="url(#gem)" stroke-width="2" stroke-linejoin="round" stroke-linecap="round" opacity=".75"/><path d="M123 245Q161 267 130 301" fill="none" stroke="url(#gem)" stroke-width="2" stroke-linejoin="round" stroke-linecap="round" opacity=".75"/><path d="M130 279Q165 293 134 322" fill="none" stroke="url(#gem)" stroke-width="2" stroke-linejoin="round" stroke-linecap="round" opacity=".75"/><path d="M137 313Q169 319 138 343" fill="none" stroke="url(#gem)" stroke-width="2" stroke-linejoin="round" stroke-linecap="round" opacity=".75"/></g><g clip-path="url(#inner)" opacity=".23"><path d="M256 256L358.32 322.45" fill="none" stroke="#de5269" stroke-width="0.7" stroke-linejoin="round" stroke-linecap="round" /><circle cx="358.32" cy="322.45" r="2.1" fill="#ece8ee"/><path d="M256 256L319.36 360.26" fill="none" stroke="#de5269" stroke-width="0.7" stroke-linejoin="round" stroke-linecap="round" /><circle cx="319.36" cy="360.26" r="2.1" fill="#ece8ee"/><path d="M256 256L267.84 377.42" fill="none" stroke="#de5269" stroke-width="0.7" stroke-linejoin="round" stroke-linecap="round" /><circle cx="267.84" cy="377.42" r="2.1" fill="#ece8ee"/><path d="M256 256L213.99 370.54" fill="none" stroke="#de5269" stroke-width="0.7" stroke-linejoin="round" stroke-linecap="round" /><circle cx="213.99" cy="370.54" r="2.1" fill="#ece8ee"/><path d="M256 256L168.45 340.97" fill="none" stroke="#de5269" stroke-width="0.7" stroke-linejoin="round" stroke-linecap="round" /><circle cx="168.45" cy="340.97" r="2.1" fill="#ece8ee"/><path d="M256 256L140.26 294.57" fill="none" stroke="#de5269" stroke-width="0.7" stroke-linejoin="round" stroke-linecap="round" /><circle cx="140.26" cy="294.57" r="2.1" fill="#ece8ee"/><path d="M256 256L134.99 240.53" fill="none" stroke="#de5269" stroke-width="0.7" stroke-linejoin="round" stroke-linecap="round" /><circle cx="134.99" cy="240.53" r="2.1" fill="#ece8ee"/><path d="M256 256L153.68 189.55" fill="none" stroke="#de5269" stroke-width="0.7" stroke-linejoin="round" stroke-linecap="round" /><circle cx="153.68" cy="189.55" r="2.1" fill="#ece8ee"/><path d="M256 256L192.64 151.74" fill="none" stroke="#de5269" stroke-width="0.7" stroke-linejoin="round" stroke-linecap="round" /><circle cx="192.64" cy="151.74" r="2.1" fill="#ece8ee"/><path d="M256 256L244.16 134.58" fill="none" stroke="#de5269" stroke-width="0.7" stroke-linejoin="round" stroke-linecap="round" /><circle cx="244.16" cy="134.58" r="2.1" fill="#ece8ee"/><path d="M256 256L298.01 141.46" fill="none" stroke="#de5269" stroke-width="0.7" stroke-linejoin="round" stroke-linecap="round" /><circle cx="298.01" cy="141.46" r="2.1" fill="#ece8ee"/><path d="M256 256L343.55 171.03" fill="none" stroke="#de5269" stroke-width="0.7" stroke-linejoin="round" stroke-linecap="round" /><circle cx="343.55" cy="171.03" r="2.1" fill="#ece8ee"/><path d="M256 256L371.74 217.43" fill="none" stroke="#de5269" stroke-width="0.7" stroke-linejoin="round" stroke-linecap="round" /><circle cx="371.74" cy="217.43" r="2.1" fill="#ece8ee"/><path d="M256 256L377.01 271.47" fill="none" stroke="#de5269" stroke-width="0.7" stroke-linejoin="round" stroke-linecap="round" /><circle cx="377.01" cy="271.47" r="2.1" fill="#ece8ee"/><circle cx="256" cy="256" r="124" fill="none" stroke="url(#silver)" stroke-width="1" stroke-dasharray="3 8"/></g><path d="M426.2 285.98L430.416 292.18L426.2 298.38L421.984 292.18Z" fill="url(#gem)" stroke="url(#gold)" stroke-width="2" stroke-linejoin="round" stroke-linecap="round" /><path d="M426.2 287.654L428.866 292.18L426.2 296.52Z" fill="#ffffff" stroke="none" stroke-width="1" stroke-linejoin="round" stroke-linecap="round" opacity=".25"/><path d="M423.534 292.18L426.2 287.654L426.2 296.52Z" fill="#03101c" stroke="none" stroke-width="1" stroke-linejoin="round" stroke-linecap="round" opacity=".32"/><path d="M424.34 291.684L426.2 288.46" fill="none" stroke="#ffffff" stroke-width="1.2" stroke-linejoin="round" stroke-linecap="round" opacity=".8"/><path d="M309.77 415.28000000000003L313.986 421.48L309.77 427.68L305.554 421.48Z" fill="url(#gem)" stroke="url(#gold)" stroke-width="2" stroke-linejoin="round" stroke-linecap="round" /><path d="M309.77 416.954L312.436 421.48L309.77 425.82Z" fill="#ffffff" stroke="none" stroke-width="1" stroke-linejoin="round" stroke-linecap="round" opacity=".25"/><path d="M307.104 421.48L309.77 416.954L309.77 425.82Z" fill="#03101c" stroke="none" stroke-width="1" stroke-linejoin="round" stroke-linecap="round" opacity=".32"/><path d="M307.90999999999997 420.98400000000004L309.77 417.76" fill="none" stroke="#ffffff" stroke-width="1.2" stroke-linejoin="round" stroke-linecap="round" opacity=".8"/><path d="M139.57 379.11L143.786 385.31L139.57 391.51L135.35399999999998 385.31Z" fill="url(#gem)" stroke="url(#gold)" stroke-width="2" stroke-linejoin="round" stroke-linecap="round" /><path d="M139.57 380.784L142.236 385.31L139.57 389.65Z" fill="#ffffff" stroke="none" stroke-width="1" stroke-linejoin="round" stroke-linecap="round" opacity=".25"/><path d="M136.904 385.31L139.57 380.784L139.57 389.65Z" fill="#03101c" stroke="none" stroke-width="1" stroke-linejoin="round" stroke-linecap="round" opacity=".32"/><path d="M137.70999999999998 384.814L139.57 381.59" fill="none" stroke="#ffffff" stroke-width="1.2" stroke-linejoin="round" stroke-linecap="round" opacity=".8"/><path d="M85.8 213.62L90.01599999999999 219.82L85.8 226.01999999999998L81.584 219.82Z" fill="url(#gem)" stroke="url(#gold)" stroke-width="2" stroke-linejoin="round" stroke-linecap="round" /><path d="M85.8 215.29399999999998L88.466 219.82L85.8 224.16Z" fill="#ffffff" stroke="none" stroke-width="1" stroke-linejoin="round" stroke-linecap="round" opacity=".25"/><path d="M83.134 219.82L85.8 215.29399999999998L85.8 224.16Z" fill="#03101c" stroke="none" stroke-width="1" stroke-linejoin="round" stroke-linecap="round" opacity=".32"/><path d="M83.94 219.32399999999998L85.8 216.1" fill="none" stroke="#ffffff" stroke-width="1.2" stroke-linejoin="round" stroke-linecap="round" opacity=".8"/><path d="M202.23 84.32L206.446 90.52L202.23 96.72L198.01399999999998 90.52Z" fill="url(#gem)" stroke="url(#gold)" stroke-width="2" stroke-linejoin="round" stroke-linecap="round" /><path d="M202.23 85.994L204.896 90.52L202.23 94.86Z" fill="#ffffff" stroke="none" stroke-width="1" stroke-linejoin="round" stroke-linecap="round" opacity=".25"/><path d="M199.564 90.52L202.23 85.994L202.23 94.86Z" fill="#03101c" stroke="none" stroke-width="1" stroke-linejoin="round" stroke-linecap="round" opacity=".32"/><path d="M200.36999999999998 90.024L202.23 86.8" fill="none" stroke="#ffffff" stroke-width="1.2" stroke-linejoin="round" stroke-linecap="round" opacity=".8"/><path d="M372.43 120.49L376.646 126.69L372.43 132.89L368.214 126.69Z" fill="url(#gem)" stroke="url(#gold)" stroke-width="2" stroke-linejoin="round" stroke-linecap="round" /><path d="M372.43 122.164L375.096 126.69L372.43 131.03Z" fill="#ffffff" stroke="none" stroke-width="1" stroke-linejoin="round" stroke-linecap="round" opacity=".25"/><path d="M369.764 126.69L372.43 122.164L372.43 131.03Z" fill="#03101c" stroke="none" stroke-width="1" stroke-linejoin="round" stroke-linecap="round" opacity=".32"/><path d="M370.57 126.194L372.43 122.97" fill="none" stroke="#ffffff" stroke-width="1.2" stroke-linejoin="round" stroke-linecap="round" opacity=".8"/><path d="M256 51L270.28 72L256 93L241.72 72Z" fill="url(#gem)" stroke="url(#gold)" stroke-width="2" stroke-linejoin="round" stroke-linecap="round" /><path d="M256 56.67L265.03 72L256 86.7Z" fill="#ffffff" stroke="none" stroke-width="1" stroke-linejoin="round" stroke-linecap="round" opacity=".25"/><path d="M246.97 72L256 56.67L256 86.7Z" fill="#03101c" stroke="none" stroke-width="1" stroke-linejoin="round" stroke-linecap="round" opacity=".32"/><path d="M249.7 70.32L256 59.4" fill="none" stroke="#ffffff" stroke-width="1.2" stroke-linejoin="round" stroke-linecap="round" opacity=".8"/><path d="M256 405L266.88 421L256 437L245.12 421Z" fill="url(#gem)" stroke="url(#gold)" stroke-width="2" stroke-linejoin="round" stroke-linecap="round" /><path d="M256 409.32L262.88 421L256 432.2Z" fill="#ffffff" stroke="none" stroke-width="1" stroke-linejoin="round" stroke-linecap="round" opacity=".25"/><path d="M249.12 421L256 409.32L256 432.2Z" fill="#03101c" stroke="none" stroke-width="1" stroke-linejoin="round" stroke-linecap="round" opacity=".32"/><path d="M251.2 419.72L256 411.4" fill="none" stroke="#ffffff" stroke-width="1.2" stroke-linejoin="round" stroke-linecap="round" opacity=".8"/><path d="M212 412Q256 438 300 412M223 427Q256 446 289 427" fill="none" stroke="url(#gold)" stroke-width="2" stroke-linejoin="round" stroke-linecap="round" /><path d="M238.0 448.5Q238.525 451.475 239.925 452Q238.525 452.525 238.0 455.5Q237.475 452.525 236.075 452Q237.475 451.475 238.0 448.5Z" fill="#ffefd1" stroke="none" stroke-width="1" stroke-linejoin="round" stroke-linecap="round" /><path d="M250.0 448.5Q250.525 451.475 251.925 452Q250.525 452.525 250.0 455.5Q249.475 452.525 248.075 452Q249.475 451.475 250.0 448.5Z" fill="#ffefd1" stroke="none" stroke-width="1" stroke-linejoin="round" stroke-linecap="round" /><path d="M262.0 448.5Q262.525 451.475 263.925 452Q262.525 452.525 262.0 455.5Q261.475 452.525 260.075 452Q261.475 451.475 262.0 448.5Z" fill="#ffefd1" stroke="none" stroke-width="1" stroke-linejoin="round" stroke-linecap="round" /><path d="M274.0 448.5Q274.525 451.475 275.925 452Q274.525 452.525 274.0 455.5Q273.475 452.525 272.075 452Q273.475 451.475 274.0 448.5Z" fill="#ffefd1" stroke="none" stroke-width="1" stroke-linejoin="round" stroke-linecap="round" /><g transform="translate(104.960 95.960) scale(0.59)"><g transform="translate(2 7)"><path d="M495.063 17.063L323.375 64.374 19.03 368.72v56.155l297.47-297.47c22.103-22.1 44.235-31.255 61.656-30.53 38.327 1.594 54.864 49.01 5.844 98.03L85.312 493h54.72L446 187.03l49.063-169.968zM360.78 126l-18.686.313.375 22.968-22.97-.374-.313 18.688 23.594.406.408 23.594 18.687-.313-.375-22.968 22.97.375.31-18.687-23.592-.406L360.78 126zm-69.092 61.5l-18.22 4.125 7.188 31.906 1.313 5.876 5.874 1.22 31.22 6.593 3.873-18.282-13.593-2.875 12.53-12.5-13.218-13.22-13.312 13.313-3.656-16.156zm-49.72 38.25l-2.25 28.156-27.468 1.813 1.25 18.655 30.844-2.03 17.937 17.936 13.22-13.217-17.5-17.5 2.594-32.313-18.625-1.5zm-43.437 55.625l-18.28 3.875 7.22 34.125-34.845-6.875L149 330.844l48.72 9.594 13.874 2.718-2.938-13.844-10.125-47.937zm-57 76.094l-16.78 16.78L97.062 368l-4.093 18.25 26.06 5.875 5.345 25.344 18.313-3.845-5.375-25.53 17.437-17.408-13.22-13.218zm-57.155 44.936l-18.688.313.376 22.967-22.938-.375L42.812 444l23.563.375.406 23.594 18.69-.314-1.095-65.25zm-53.844 66.03l-11.5 11.533V493h13.407l11.313-11.344-13.22-13.22z" fill="#03060d" stroke="#03060d" stroke-width="6" stroke-linejoin="round" stroke-linecap="round" /></g><path d="M495.063 17.063L323.375 64.374 19.03 368.72v56.155l297.47-297.47c22.103-22.1 44.235-31.255 61.656-30.53 38.327 1.594 54.864 49.01 5.844 98.03L85.312 493h54.72L446 187.03l49.063-169.968zM360.78 126l-18.686.313.375 22.968-22.97-.374-.313 18.688 23.594.406.408 23.594 18.687-.313-.375-22.968 22.97.375.31-18.687-23.592-.406L360.78 126zm-69.092 61.5l-18.22 4.125 7.188 31.906 1.313 5.876 5.874 1.22 31.22 6.593 3.873-18.282-13.593-2.875 12.53-12.5-13.218-13.22-13.312 13.313-3.656-16.156zm-49.72 38.25l-2.25 28.156-27.468 1.813 1.25 18.655 30.844-2.03 17.937 17.936 13.22-13.217-17.5-17.5 2.594-32.313-18.625-1.5zm-43.437 55.625l-18.28 3.875 7.22 34.125-34.845-6.875L149 330.844l48.72 9.594 13.874 2.718-2.938-13.844-10.125-47.937zm-57 76.094l-16.78 16.78L97.062 368l-4.093 18.25 26.06 5.875 5.345 25.344 18.313-3.845-5.375-25.53 17.437-17.408-13.22-13.218zm-57.155 44.936l-18.688.313.376 22.967-22.938-.375L42.812 444l23.563.375.406 23.594 18.69-.314-1.095-65.25zm-53.844 66.03l-11.5 11.533V493h13.407l11.313-11.344-13.22-13.22z" fill="url(#metal)" stroke="#0b101b" stroke-width="4.8" stroke-linejoin="round" stroke-linecap="round" /><g transform="translate(-1 -1.3)"><path d="M495.063 17.063L323.375 64.374 19.03 368.72v56.155l297.47-297.47c22.103-22.1 44.235-31.255 61.656-30.53 38.327 1.594 54.864 49.01 5.844 98.03L85.312 493h54.72L446 187.03l49.063-169.968zM360.78 126l-18.686.313.375 22.968-22.97-.374-.313 18.688 23.594.406.408 23.594 18.687-.313-.375-22.968 22.97.375.31-18.687-23.592-.406L360.78 126zm-69.092 61.5l-18.22 4.125 7.188 31.906 1.313 5.876 5.874 1.22 31.22 6.593 3.873-18.282-13.593-2.875 12.53-12.5-13.218-13.22-13.312 13.313-3.656-16.156zm-49.72 38.25l-2.25 28.156-27.468 1.813 1.25 18.655 30.844-2.03 17.937 17.936 13.22-13.217-17.5-17.5 2.594-32.313-18.625-1.5zm-43.437 55.625l-18.28 3.875 7.22 34.125-34.845-6.875L149 330.844l48.72 9.594 13.874 2.718-2.938-13.844-10.125-47.937zm-57 76.094l-16.78 16.78L97.062 368l-4.093 18.25 26.06 5.875 5.345 25.344 18.313-3.845-5.375-25.53 17.437-17.408-13.22-13.218zm-57.155 44.936l-18.688.313.376 22.967-22.938-.375L42.812 444l23.563.375.406 23.594 18.69-.314-1.095-65.25zm-53.844 66.03l-11.5 11.533V493h13.407l11.313-11.344-13.22-13.22z" fill="none" stroke="#ece8ee" stroke-width="1.4" stroke-linejoin="round" stroke-linecap="round" opacity=".65"/></g></g><path d="M249 147L252 261L261 284" fill="none" stroke="url(#gem)" stroke-width="2.4" stroke-linejoin="round" stroke-linecap="round" /><path d="M256 299L260.76 306L256 313L251.24 306Z" fill="url(#gem)" stroke="url(#gold)" stroke-width="2" stroke-linejoin="round" stroke-linecap="round" /><path d="M256 300.89L259.01 306L256 310.9Z" fill="#ffffff" stroke="none" stroke-width="1" stroke-linejoin="round" stroke-linecap="round" opacity=".25"/><path d="M252.99 306L256 300.89L256 310.9Z" fill="#03101c" stroke="none" stroke-width="1" stroke-linejoin="round" stroke-linecap="round" opacity=".32"/><path d="M253.9 305.44L256 301.8" fill="none" stroke="#ffffff" stroke-width="1.2" stroke-linejoin="round" stroke-linecap="round" opacity=".8"/><path d="M176 121Q176.6 124.4 178.2 125Q176.6 125.6 176 129Q175.4 125.6 173.8 125Q175.4 124.4 176 121Z" fill="#ffefd1" stroke="none" stroke-width="1" stroke-linejoin="round" stroke-linecap="round" /><path d="M344 339Q344.75 343.25 346.75 344Q344.75 344.75 344 349Q343.25 344.75 341.25 344Q343.25 343.25 344 339Z" fill="#ffefd1" stroke="none" stroke-width="1" stroke-linejoin="round" stroke-linecap="round" /></svg>