<svg xmlns="http://www.w3.org/2000/svg" width="512" height="512" viewBox="0 0 512 512"><title>الصوت الأول</title><desc>Adapted from Quill icon by Lorc, CC BY 3.0. Original Mangaro metalwork, frame, inlays and composition. Source: https://game-icons.net/1x1/lorc/quill.html</desc><defs>
      <linearGradient id="gold" x1="0" y1="0" x2=".85" y2="1"><stop stop-color="#f7e9b2"/><stop offset=".18" stop-color="#8f693a"/><stop offset=".38" stop-color="#e6c67b"/><stop offset=".55" stop-color="#fff4d1"/><stop offset=".7" stop-color="#957044"/><stop offset="1" stop-color="#d5ad65"/></linearGradient>
      <linearGradient id="silver" x1="0" y1="0" x2="1" y2="1"><stop stop-color="#dcffef"/><stop offset=".35" stop-color="#637281"/><stop offset=".48" stop-color="#f6eddd"/><stop offset=".65" stop-color="#738a96"/><stop offset="1" stop-color="#d9d7cb"/></linearGradient>
      <linearGradient id="metal" x1=".1" y1="0" x2=".8" y2="1"><stop stop-color="#fff4cd"/><stop offset=".18" stop-color="#bd9150"/><stop offset=".33" stop-color="#fff4cd"/><stop offset=".49" stop-color="#bd9150"/><stop offset=".51" stop-color="#fff4cd"/><stop offset=".74" stop-color="#624d30"/><stop offset="1" stop-color="#bd9150"/></linearGradient>
      <linearGradient id="gem" x1="0" y1="0" x2=".85" y2="1"><stop stop-color="#dcffef"/><stop offset=".27" stop-color="#5dd5ad"/><stop offset=".64" stop-color="#286b58"/><stop offset="1" stop-color="#5dd5ad"/></linearGradient>
      <linearGradient id="rose"><stop stop-color="#ffe4de"/><stop offset=".5" stop-color="#c27391"/><stop offset="1" stop-color="#f6bcc0"/></linearGradient>
      <radialGradient id="enamel" cx=".4" cy=".28" r=".85"><stop stop-color="#286b58"/><stop offset=".5" stop-color="#151927"/><stop offset="1" stop-color="#070b14"/></radialGradient>
      <radialGradient id="portal"><stop stop-color="#dcffef"/><stop offset=".25" stop-color="#5dd5ad"/><stop offset="1" stop-color="#286b58" stop-opacity=".3"/></radialGradient>
      <radialGradient id="halo"><stop stop-color="#5dd5ad" stop-opacity=".24"/><stop offset=".65" stop-color="#5dd5ad" stop-opacity=".08"/><stop offset="1" stop-color="#5dd5ad" stop-opacity="0"/></radialGradient>
      <filter id="shadow" x="-.4" y="-.4" width="1.8" height="1.8"><feGaussianBlur stdDeviation="5"/></filter>
      <clipPath id="inner"><path d="M256 30Q332 48 388 102L418 202Q448 254 406 324Q359 416 256 478Q153 416 106 324Q64 254 94 202L124 102Q180 48 256 30Z" transform="translate(256 256) scale(.73) translate(-256 -256)"/></clipPath>
    </defs><circle cx="256" cy="254" r="249" fill="url(#halo)"/><path d="M256 30Q332 48 388 102L418 202Q448 254 406 324Q359 416 256 478Q153 416 106 324Q64 254 94 202L124 102Q180 48 256 30Z" fill="#000000" stroke="none" stroke-width="1" stroke-linejoin="round" stroke-linecap="round" transform="translate(0 7)" opacity=".6" filter="url(#shadow)"/><path d="M256 30Q332 48 388 102L418 202Q448 254 406 324Q359 416 256 478Q153 416 106 324Q64 254 94 202L124 102Q180 48 256 30Z" fill="url(#enamel)" stroke="#0b1019" stroke-width="12" stroke-linejoin="round" stroke-linecap="round" /><path d="M256 30Q332 48 388 102L418 202Q448 254 406 324Q359 416 256 478Q153 416 106 324Q64 254 94 202L124 102Q180 48 256 30Z" fill="none" stroke="url(#gold)" stroke-width="7" stroke-linejoin="round" stroke-linecap="round" /><path d="M256 30Q332 48 388 102L418 202Q448 254 406 324Q359 416 256 478Q153 416 106 324Q64 254 94 202L124 102Q180 48 256 30Z" fill="none" stroke="url(#gem)" stroke-width="2" stroke-linejoin="round" stroke-linecap="round" transform="translate(256 256) scale(.94) translate(-256 -256)"/><path d="M256 30Q332 48 388 102L418 202Q448 254 406 324Q359 416 256 478Q153 416 106 324Q64 254 94 202L124 102Q180 48 256 30Z" fill="url(#enamel)" stroke="url(#silver)" stroke-width="1.5" stroke-linejoin="round" stroke-linecap="round" transform="translate(256 256) scale(.82) translate(-256 -256)"/><path d="M256 30Q332 48 388 102L418 202Q448 254 406 324Q359 416 256 478Q153 416 106 324Q64 254 94 202L124 102Q180 48 256 30Z" fill="none" stroke="url(#gold)" stroke-width="1" stroke-linejoin="round" stroke-linecap="round" transform="translate(256 256) scale(.78) translate(-256 -256)" opacity=".5"/><g transform="translate(0 0) scale(1 1)"><path d="M146 400Q73 279 117 135" fill="none" stroke="url(#gold)" stroke-width="3" stroke-linejoin="round" stroke-linecap="round" /><path d="M117.4 174Q82.4 166 95.4 146Q120.4 143 117.4 174Z" fill="url(#gem)" stroke="url(#gold)" stroke-width="2" stroke-linejoin="round" stroke-linecap="round" /><path d="M97.4 150L117.4 174" fill="none" stroke="url(#silver)" stroke-width="1" stroke-linejoin="round" stroke-linecap="round" /><path d="M112.6 203Q77.6 195 90.6 175Q115.6 172 112.6 203Z" fill="url(#gem)" stroke="url(#gold)" stroke-width="2" stroke-linejoin="round" stroke-linecap="round" /><path d="M92.6 179L112.6 203" fill="none" stroke="url(#silver)" stroke-width="1" stroke-linejoin="round" stroke-linecap="round" /><path d="M111.0 232Q76.0 224 89.0 204Q114.0 201 111.0 232Z" fill="url(#gem)" stroke="url(#gold)" stroke-width="2" stroke-linejoin="round" stroke-linecap="round" /><path d="M91.0 208L111.0 232" fill="none" stroke="url(#silver)" stroke-width="1" stroke-linejoin="round" stroke-linecap="round" /><path d="M112.6 261Q77.6 253 90.6 233Q115.6 230 112.6 261Z" fill="url(#gem)" stroke="url(#gold)" stroke-width="2" stroke-linejoin="round" stroke-linecap="round" /><path d="M92.6 237L112.6 261" fill="none" stroke="url(#silver)" stroke-width="1" stroke-linejoin="round" stroke-linecap="round" /></g><g transform="translate(512 0) scale(-1 1)"><path d="M146 400Q73 279 117 135" fill="none" stroke="url(#gold)" stroke-width="3" stroke-linejoin="round" stroke-linecap="round" /><path d="M117.4 174Q82.4 166 95.4 146Q120.4 143 117.4 174Z" fill="url(#gem)" stroke="url(#gold)" stroke-width="2" stroke-linejoin="round" stroke-linecap="round" /><path d="M97.4 150L117.4 174" fill="none" stroke="url(#silver)" stroke-width="1" stroke-linejoin="round" stroke-linecap="round" /><path d="M112.6 203Q77.6 195 90.6 175Q115.6 172 112.6 203Z" fill="url(#gem)" stroke="url(#gold)" stroke-width="2" stroke-linejoin="round" stroke-linecap="round" /><path d="M92.6 179L112.6 203" fill="none" stroke="url(#silver)" stroke-width="1" stroke-linejoin="round" stroke-linecap="round" /><path d="M111.0 232Q76.0 224 89.0 204Q114.0 201 111.0 232Z" fill="url(#gem)" stroke="url(#gold)" stroke-width="2" stroke-linejoin="round" stroke-linecap="round" /><path d="M91.0 208L111.0 232" fill="none" stroke="url(#silver)" stroke-width="1" stroke-linejoin="round" stroke-linecap="round" /><path d="M112.6 261Q77.6 253 90.6 233Q115.6 230 112.6 261Z" fill="url(#gem)" stroke="url(#gold)" stroke-width="2" stroke-linejoin="round" stroke-linecap="round" /><path d="M92.6 237L112.6 261" fill="none" stroke="url(#silver)" stroke-width="1" stroke-linejoin="round" stroke-linecap="round" /></g><g clip-path="url(#inner)" opacity=".23"><path d="M256 256L378.00 256.00" fill="none" stroke="#5dd5ad" stroke-width="0.7" stroke-linejoin="round" stroke-linecap="round" /><circle cx="378.00" cy="256.00" r="2.1" fill="#dcffef"/><path d="M256 256L342.27 342.27" fill="none" stroke="#5dd5ad" stroke-width="0.7" stroke-linejoin="round" stroke-linecap="round" /><circle cx="342.27" cy="342.27" r="2.1" fill="#dcffef"/><path d="M256 256L256.00 378.00" fill="none" stroke="#5dd5ad" stroke-width="0.7" stroke-linejoin="round" stroke-linecap="round" /><circle cx="256.00" cy="378.00" r="2.1" fill="#dcffef"/><path d="M256 256L169.73 342.27" fill="none" stroke="#5dd5ad" stroke-width="0.7" stroke-linejoin="round" stroke-linecap="round" /><circle cx="169.73" cy="342.27" r="2.1" fill="#dcffef"/><path d="M256 256L134.00 256.00" fill="none" stroke="#5dd5ad" stroke-width="0.7" stroke-linejoin="round" stroke-linecap="round" /><circle cx="134.00" cy="256.00" r="2.1" fill="#dcffef"/><path d="M256 256L169.73 169.73" fill="none" stroke="#5dd5ad" stroke-width="0.7" stroke-linejoin="round" stroke-linecap="round" /><circle cx="169.73" cy="169.73" r="2.1" fill="#dcffef"/><path d="M256 256L256.00 134.00" fill="none" stroke="#5dd5ad" stroke-width="0.7" stroke-linejoin="round" stroke-linecap="round" /><circle cx="256.00" cy="134.00" r="2.1" fill="#dcffef"/><path d="M256 256L342.27 169.73" fill="none" stroke="#5dd5ad" stroke-width="0.7" stroke-linejoin="round" stroke-linecap="round" /><circle cx="342.27" cy="169.73" r="2.1" fill="#dcffef"/><circle cx="256" cy="256" r="124" fill="none" stroke="url(#silver)" stroke-width="1" stroke-dasharray="3 8"/></g><path d="M430.0 251.3L433.196 256.0L430.0 260.7L426.804 256.0Z" fill="url(#gem)" stroke="url(#gold)" stroke-width="2" stroke-linejoin="round" stroke-linecap="round" /><path d="M430.0 252.569L432.021 256.0L430.0 259.29Z" fill="#ffffff" stroke="none" stroke-width="1" stroke-linejoin="round" stroke-linecap="round" opacity=".25"/><path d="M427.979 256.0L430.0 252.569L430.0 259.29Z" fill="#03101c" stroke="none" stroke-width="1" stroke-linejoin="round" stroke-linecap="round" opacity=".32"/><path d="M428.59 255.624L430.0 253.18" fill="none" stroke="#ffffff" stroke-width="1.2" stroke-linejoin="round" stroke-linecap="round" opacity=".8"/><path d="M343.0 401.99L346.196 406.69L343.0 411.39L339.804 406.69Z" fill="url(#gem)" stroke="url(#gold)" stroke-width="2" stroke-linejoin="round" stroke-linecap="round" /><path d="M343.0 403.259L345.021 406.69L343.0 409.98Z" fill="#ffffff" stroke="none" stroke-width="1" stroke-linejoin="round" stroke-linecap="round" opacity=".25"/><path d="M340.979 406.69L343.0 403.259L343.0 409.98Z" fill="#03101c" stroke="none" stroke-width="1" stroke-linejoin="round" stroke-linecap="round" opacity=".32"/><path d="M341.59 406.314L343.0 403.87" fill="none" stroke="#ffffff" stroke-width="1.2" stroke-linejoin="round" stroke-linecap="round" opacity=".8"/><path d="M169.0 401.99L172.196 406.69L169.0 411.39L165.804 406.69Z" fill="url(#gem)" stroke="url(#gold)" stroke-width="2" stroke-linejoin="round" stroke-linecap="round" /><path d="M169.0 403.259L171.021 406.69L169.0 409.98Z" fill="#ffffff" stroke="none" stroke-width="1" stroke-linejoin="round" stroke-linecap="round" opacity=".25"/><path d="M166.979 406.69L169.0 403.259L169.0 409.98Z" fill="#03101c" stroke="none" stroke-width="1" stroke-linejoin="round" stroke-linecap="round" opacity=".32"/><path d="M167.59 406.314L169.0 403.87" fill="none" stroke="#ffffff" stroke-width="1.2" stroke-linejoin="round" stroke-linecap="round" opacity=".8"/><path d="M82.0 251.3L85.196 256.0L82.0 260.7L78.804 256.0Z" fill="url(#gem)" stroke="url(#gold)" stroke-width="2" stroke-linejoin="round" stroke-linecap="round" /><path d="M82.0 252.569L84.021 256.0L82.0 259.29Z" fill="#ffffff" stroke="none" stroke-width="1" stroke-linejoin="round" stroke-linecap="round" opacity=".25"/><path d="M79.979 256.0L82.0 252.569L82.0 259.29Z" fill="#03101c" stroke="none" stroke-width="1" stroke-linejoin="round" stroke-linecap="round" opacity=".32"/><path d="M80.59 255.624L82.0 253.18" fill="none" stroke="#ffffff" stroke-width="1.2" stroke-linejoin="round" stroke-linecap="round" opacity=".8"/><path d="M169.0 100.61L172.196 105.31L169.0 110.01L165.804 105.31Z" fill="url(#gem)" stroke="url(#gold)" stroke-width="2" stroke-linejoin="round" stroke-linecap="round" /><path d="M169.0 101.879L171.021 105.31L169.0 108.60000000000001Z" fill="#ffffff" stroke="none" stroke-width="1" stroke-linejoin="round" stroke-linecap="round" opacity=".25"/><path d="M166.979 105.31L169.0 101.879L169.0 108.60000000000001Z" fill="#03101c" stroke="none" stroke-width="1" stroke-linejoin="round" stroke-linecap="round" opacity=".32"/><path d="M167.59 104.934L169.0 102.49000000000001" fill="none" stroke="#ffffff" stroke-width="1.2" stroke-linejoin="round" stroke-linecap="round" opacity=".8"/><path d="M343.0 100.61L346.196 105.31L343.0 110.01L339.804 105.31Z" fill="url(#gem)" stroke="url(#gold)" stroke-width="2" stroke-linejoin="round" stroke-linecap="round" /><path d="M343.0 101.879L345.021 105.31L343.0 108.60000000000001Z" fill="#ffffff" stroke="none" stroke-width="1" stroke-linejoin="round" stroke-linecap="round" opacity=".25"/><path d="M340.979 105.31L343.0 101.879L343.0 108.60000000000001Z" fill="#03101c" stroke="none" stroke-width="1" stroke-linejoin="round" stroke-linecap="round" opacity=".32"/><path d="M341.59 104.934L343.0 102.49000000000001" fill="none" stroke="#ffffff" stroke-width="1.2" stroke-linejoin="round" stroke-linecap="round" opacity=".8"/><path d="M256 57L266.2 72L256 87L245.8 72Z" fill="url(#gem)" stroke="url(#gold)" stroke-width="2" stroke-linejoin="round" stroke-linecap="round" /><path d="M256 61.05L262.45 72L256 82.5Z" fill="#ffffff" stroke="none" stroke-width="1" stroke-linejoin="round" stroke-linecap="round" opacity=".25"/><path d="M249.55 72L256 61.05L256 82.5Z" fill="#03101c" stroke="none" stroke-width="1" stroke-linejoin="round" stroke-linecap="round" opacity=".32"/><path d="M251.5 70.8L256 63.0" fill="none" stroke="#ffffff" stroke-width="1.2" stroke-linejoin="round" stroke-linecap="round" opacity=".8"/><path d="M256 411L262.8 421L256 431L249.2 421Z" fill="url(#gem)" stroke="url(#gold)" stroke-width="2" stroke-linejoin="round" stroke-linecap="round" /><path d="M256 413.7L260.3 421L256 428.0Z" fill="#ffffff" stroke="none" stroke-width="1" stroke-linejoin="round" stroke-linecap="round" opacity=".25"/><path d="M251.7 421L256 413.7L256 428.0Z" fill="#03101c" stroke="none" stroke-width="1" stroke-linejoin="round" stroke-linecap="round" opacity=".32"/><path d="M253.0 420.2L256 415.0" fill="none" stroke="#ffffff" stroke-width="1.2" stroke-linejoin="round" stroke-linecap="round" opacity=".8"/><path d="M212 412Q256 438 300 412M223 427Q256 446 289 427" fill="none" stroke="url(#gold)" stroke-width="2" stroke-linejoin="round" stroke-linecap="round" /><path d="M256.0 448.5Q256.525 451.475 257.925 452Q256.525 452.525 256.0 455.5Q255.475 452.525 254.075 452Q255.475 451.475 256.0 448.5Z" fill="#ffefd1" stroke="none" stroke-width="1" stroke-linejoin="round" stroke-linecap="round" /><g transform="translate(104.960 95.960) scale(0.59)"><g transform="translate(2 7)"><path d="M492.47 21.938c-82.74-.256-167.442 12.5-242.814 45.093 5.205 13.166 9.578 28.48 13.188 45.532C242.55 97.27 217.167 92.385 194.72 95.5c-46.22 28.432-87.13 66.305-119.44 115.594 25.193 7.756 51.57 22.81 72.845 43.844-31.87-7.045-68.907-5.895-99.188 3-13.743 28.688-25.008 60.48-33.343 95.687 128.71-30.668 130.522 3.514 50.75 140.438 16.877 12.614 42.182 13.77 61.906-1.563C134 267.936 231.43 326.246 254.188 354.562c14.288-40.59 34.77-82.54 62.906-126.468-17.29-14.667-39.21-24.838-63.813-32.375 25.364-5.256 50.91-10.928 74.126-11.22 6.482-.082 12.78.272 18.844 1.156 17.57-24.007 37.408-48.612 59.75-73.97-12.538-6.31-25.476-11.454-38.125-14.967 17.132-5.76 35.274-8.34 52.844-8.157 2.01.02 4.004.095 6 .187 20.07-21.708 41.927-43.976 65.75-66.813zM426.72 47.28C295.79 112.674 200.094 210.206 144.936 333.53 172.34 184.41 287.048 84.57 426.72 47.28z" fill="#03060d" stroke="#03060d" stroke-width="6" stroke-linejoin="round" stroke-linecap="round" /></g><path d="M492.47 21.938c-82.74-.256-167.442 12.5-242.814 45.093 5.205 13.166 9.578 28.48 13.188 45.532C242.55 97.27 217.167 92.385 194.72 95.5c-46.22 28.432-87.13 66.305-119.44 115.594 25.193 7.756 51.57 22.81 72.845 43.844-31.87-7.045-68.907-5.895-99.188 3-13.743 28.688-25.008 60.48-33.343 95.687 128.71-30.668 130.522 3.514 50.75 140.438 16.877 12.614 42.182 13.77 61.906-1.563C134 267.936 231.43 326.246 254.188 354.562c14.288-40.59 34.77-82.54 62.906-126.468-17.29-14.667-39.21-24.838-63.813-32.375 25.364-5.256 50.91-10.928 74.126-11.22 6.482-.082 12.78.272 18.844 1.156 17.57-24.007 37.408-48.612 59.75-73.97-12.538-6.31-25.476-11.454-38.125-14.967 17.132-5.76 35.274-8.34 52.844-8.157 2.01.02 4.004.095 6 .187 20.07-21.708 41.927-43.976 65.75-66.813zM426.72 47.28C295.79 112.674 200.094 210.206 144.936 333.53 172.34 184.41 287.048 84.57 426.72 47.28z" fill="url(#metal)" stroke="#0b101b" stroke-width="4.8" stroke-linejoin="round" stroke-linecap="round" /><g transform="translate(-1 -1.3)"><path d="M492.47 21.938c-82.74-.256-167.442 12.5-242.814 45.093 5.205 13.166 9.578 28.48 13.188 45.532C242.55 97.27 217.167 92.385 194.72 95.5c-46.22 28.432-87.13 66.305-119.44 115.594 25.193 7.756 51.57 22.81 72.845 43.844-31.87-7.045-68.907-5.895-99.188 3-13.743 28.688-25.008 60.48-33.343 95.687 128.71-30.668 130.522 3.514 50.75 140.438 16.877 12.614 42.182 13.77 61.906-1.563C134 267.936 231.43 326.246 254.188 354.562c14.288-40.59 34.77-82.54 62.906-126.468-17.29-14.667-39.21-24.838-63.813-32.375 25.364-5.256 50.91-10.928 74.126-11.22 6.482-.082 12.78.272 18.844 1.156 17.57-24.007 37.408-48.612 59.75-73.97-12.538-6.31-25.476-11.454-38.125-14.967 17.132-5.76 35.274-8.34 52.844-8.157 2.01.02 4.004.095 6 .187 20.07-21.708 41.927-43.976 65.75-66.813zM426.72 47.28C295.79 112.674 200.094 210.206 144.936 333.53 172.34 184.41 287.048 84.57 426.72 47.28z" fill="none" stroke="#dcffef" stroke-width="1.4" stroke-linejoin="round" stroke-linecap="round" opacity=".65"/></g></g><path d="M270 201Q271.05 206.95 273.85 208Q271.05 209.05 270 215Q268.95 209.05 266.15 208Q268.95 206.95 270 201Z" fill="#ffefd1" stroke="none" stroke-width="1" stroke-linejoin="round" stroke-linecap="round" /><path d="M223 278Q242 291 267 281" fill="none" stroke="url(#gem)" stroke-width="2" stroke-linejoin="round" stroke-linecap="round" /></svg>