<svg xmlns="http://www.w3.org/2000/svg" width="512" height="512" viewBox="0 0 512 512"><title>زائر الطابق الأول</title><desc>Adapted from Star key icon by Delapouite, CC BY 3.0. Original Mangaro metalwork, frame, inlays and composition. Source: https://game-icons.net/1x1/delapouite/star-key.html</desc><defs>
      <linearGradient id="gold" x1="0" y1="0" x2=".85" y2="1"><stop stop-color="#f7e9b2"/><stop offset=".18" stop-color="#8f693a"/><stop offset=".38" stop-color="#e6c67b"/><stop offset=".55" stop-color="#fff4d1"/><stop offset=".7" stop-color="#957044"/><stop offset="1" stop-color="#d5ad65"/></linearGradient>
      <linearGradient id="silver" x1="0" y1="0" x2="1" y2="1"><stop stop-color="#eee0ff"/><stop offset=".35" stop-color="#637281"/><stop offset=".48" stop-color="#f6eddd"/><stop offset=".65" stop-color="#738a96"/><stop offset="1" stop-color="#d9d7cb"/></linearGradient>
      <linearGradient id="metal" x1=".1" y1="0" x2=".8" y2="1"><stop stop-color="#f3f0ef"/><stop offset=".18" stop-color="#7b93a5"/><stop offset=".33" stop-color="#f3f0ef"/><stop offset=".49" stop-color="#7b93a5"/><stop offset=".51" stop-color="#f3f0ef"/><stop offset=".74" stop-color="#3e445c"/><stop offset="1" stop-color="#7b93a5"/></linearGradient>
      <linearGradient id="gem" x1="0" y1="0" x2=".85" y2="1"><stop stop-color="#eee0ff"/><stop offset=".27" stop-color="#ae86f1"/><stop offset=".64" stop-color="#543887"/><stop offset="1" stop-color="#ae86f1"/></linearGradient>
      <linearGradient id="rose"><stop stop-color="#ffe4de"/><stop offset=".5" stop-color="#c27391"/><stop offset="1" stop-color="#f6bcc0"/></linearGradient>
      <radialGradient id="enamel" cx=".4" cy=".28" r=".85"><stop stop-color="#543887"/><stop offset=".5" stop-color="#151927"/><stop offset="1" stop-color="#070b14"/></radialGradient>
      <radialGradient id="portal"><stop stop-color="#eee0ff"/><stop offset=".25" stop-color="#ae86f1"/><stop offset="1" stop-color="#543887" stop-opacity=".3"/></radialGradient>
      <radialGradient id="halo"><stop stop-color="#ae86f1" stop-opacity=".24"/><stop offset=".65" stop-color="#ae86f1" stop-opacity=".08"/><stop offset="1" stop-color="#ae86f1" stop-opacity="0"/></radialGradient>
      <filter id="shadow" x="-.4" y="-.4" width="1.8" height="1.8"><feGaussianBlur stdDeviation="5"/></filter>
      <clipPath id="inner"><path d="M256 24L292 84L364 92L384 163L458 256L384 349L364 420L292 428L256 488L220 428L148 420L128 349L54 256L128 163L148 92L220 84Z" transform="translate(256 256) scale(.73) translate(-256 -256)"/></clipPath>
    </defs><circle cx="256" cy="254" r="249" fill="url(#halo)"/><path d="M256 24L292 84L364 92L384 163L458 256L384 349L364 420L292 428L256 488L220 428L148 420L128 349L54 256L128 163L148 92L220 84Z" fill="#000000" stroke="none" stroke-width="1" stroke-linejoin="round" stroke-linecap="round" transform="translate(0 7)" opacity=".6" filter="url(#shadow)"/><path d="M256 24L292 84L364 92L384 163L458 256L384 349L364 420L292 428L256 488L220 428L148 420L128 349L54 256L128 163L148 92L220 84Z" fill="url(#enamel)" stroke="#0b1019" stroke-width="12" stroke-linejoin="round" stroke-linecap="round" /><path d="M256 24L292 84L364 92L384 163L458 256L384 349L364 420L292 428L256 488L220 428L148 420L128 349L54 256L128 163L148 92L220 84Z" fill="none" stroke="url(#gold)" stroke-width="7" stroke-linejoin="round" stroke-linecap="round" /><path d="M256 24L292 84L364 92L384 163L458 256L384 349L364 420L292 428L256 488L220 428L148 420L128 349L54 256L128 163L148 92L220 84Z" fill="none" stroke="url(#gem)" stroke-width="2" stroke-linejoin="round" stroke-linecap="round" transform="translate(256 256) scale(.94) translate(-256 -256)"/><path d="M256 24L292 84L364 92L384 163L458 256L384 349L364 420L292 428L256 488L220 428L148 420L128 349L54 256L128 163L148 92L220 84Z" fill="url(#enamel)" stroke="url(#silver)" stroke-width="1.5" stroke-linejoin="round" stroke-linecap="round" transform="translate(256 256) scale(.82) translate(-256 -256)"/><path d="M256 24L292 84L364 92L384 163L458 256L384 349L364 420L292 428L256 488L220 428L148 420L128 349L54 256L128 163L148 92L220 84Z" fill="none" stroke="url(#gold)" stroke-width="1" stroke-linejoin="round" stroke-linecap="round" transform="translate(256 256) scale(.78) translate(-256 -256)" opacity=".5"/><g transform="translate(0 0) scale(1 1)"><path d="M100 262Q142 111 256 79" fill="none" stroke="url(#gold)" stroke-width="3" stroke-linejoin="round" stroke-linecap="round" /><path d="M94 282Q104 352 183 407" fill="none" stroke="url(#silver)" stroke-width="2" stroke-linejoin="round" stroke-linecap="round" /><path d="M134.0 134Q134.75 138.25 136.75 139Q134.75 139.75 134.0 144Q133.25 139.75 131.25 139Q133.25 138.25 134.0 134Z" fill="#ffefd1" stroke="none" stroke-width="1" stroke-linejoin="round" stroke-linecap="round" /><path d="M134.0 136L136.04 139L134.0 142L131.96 139Z" fill="url(#gem)" stroke="url(#gold)" stroke-width="2" stroke-linejoin="round" stroke-linecap="round" /><path d="M134.0 136.81L135.29 139L134.0 141.1Z" fill="#ffffff" stroke="none" stroke-width="1" stroke-linejoin="round" stroke-linecap="round" opacity=".25"/><path d="M132.71 139L134.0 136.81L134.0 141.1Z" fill="#03101c" stroke="none" stroke-width="1" stroke-linejoin="round" stroke-linecap="round" opacity=".32"/><path d="M133.1 138.76L134.0 137.2" fill="none" stroke="#ffffff" stroke-width="1.2" stroke-linejoin="round" stroke-linecap="round" opacity=".8"/><path d="M118.5 168Q119.4 173.1 121.8 174Q119.4 174.9 118.5 180Q117.6 174.9 115.2 174Q117.6 173.1 118.5 168Z" fill="#ffefd1" stroke="none" stroke-width="1" stroke-linejoin="round" stroke-linecap="round" /><path d="M118.5 171L120.54 174L118.5 177L116.46 174Z" fill="url(#gem)" stroke="url(#gold)" stroke-width="2" stroke-linejoin="round" stroke-linecap="round" /><path d="M118.5 171.81L119.79 174L118.5 176.1Z" fill="#ffffff" stroke="none" stroke-width="1" stroke-linejoin="round" stroke-linecap="round" opacity=".25"/><path d="M117.21 174L118.5 171.81L118.5 176.1Z" fill="#03101c" stroke="none" stroke-width="1" stroke-linejoin="round" stroke-linecap="round" opacity=".32"/><path d="M117.6 173.76L118.5 172.2" fill="none" stroke="#ffffff" stroke-width="1.2" stroke-linejoin="round" stroke-linecap="round" opacity=".8"/><path d="M107.1532124826824 204Q107.9032124826824 208.25 109.9032124826824 209Q107.9032124826824 209.75 107.1532124826824 214Q106.4032124826824 209.75 104.4032124826824 209Q106.4032124826824 208.25 107.1532124826824 204Z" fill="#ffefd1" stroke="none" stroke-width="1" stroke-linejoin="round" stroke-linecap="round" /><path d="M107.1532124826824 206L109.19321248268241 209L107.1532124826824 212L105.1132124826824 209Z" fill="url(#gem)" stroke="url(#gold)" stroke-width="2" stroke-linejoin="round" stroke-linecap="round" /><path d="M107.1532124826824 206.81L108.44321248268241 209L107.1532124826824 211.1Z" fill="#ffffff" stroke="none" stroke-width="1" stroke-linejoin="round" stroke-linecap="round" opacity=".25"/><path d="M105.8632124826824 209L107.1532124826824 206.81L107.1532124826824 211.1Z" fill="#03101c" stroke="none" stroke-width="1" stroke-linejoin="round" stroke-linecap="round" opacity=".32"/><path d="M106.2532124826824 208.76L107.1532124826824 207.2" fill="none" stroke="#ffffff" stroke-width="1.2" stroke-linejoin="round" stroke-linecap="round" opacity=".8"/></g><g transform="translate(512 0) scale(-1 1)"><path d="M100 262Q142 111 256 79" fill="none" stroke="url(#gold)" stroke-width="3" stroke-linejoin="round" stroke-linecap="round" /><path d="M94 282Q104 352 183 407" fill="none" stroke="url(#silver)" stroke-width="2" stroke-linejoin="round" stroke-linecap="round" /><path d="M134.0 134Q134.75 138.25 136.75 139Q134.75 139.75 134.0 144Q133.25 139.75 131.25 139Q133.25 138.25 134.0 134Z" fill="#ffefd1" stroke="none" stroke-width="1" stroke-linejoin="round" stroke-linecap="round" /><path d="M134.0 136L136.04 139L134.0 142L131.96 139Z" fill="url(#gem)" stroke="url(#gold)" stroke-width="2" stroke-linejoin="round" stroke-linecap="round" /><path d="M134.0 136.81L135.29 139L134.0 141.1Z" fill="#ffffff" stroke="none" stroke-width="1" stroke-linejoin="round" stroke-linecap="round" opacity=".25"/><path d="M132.71 139L134.0 136.81L134.0 141.1Z" fill="#03101c" stroke="none" stroke-width="1" stroke-linejoin="round" stroke-linecap="round" opacity=".32"/><path d="M133.1 138.76L134.0 137.2" fill="none" stroke="#ffffff" stroke-width="1.2" stroke-linejoin="round" stroke-linecap="round" opacity=".8"/><path d="M118.5 168Q119.4 173.1 121.8 174Q119.4 174.9 118.5 180Q117.6 174.9 115.2 174Q117.6 173.1 118.5 168Z" fill="#ffefd1" stroke="none" stroke-width="1" stroke-linejoin="round" stroke-linecap="round" /><path d="M118.5 171L120.54 174L118.5 177L116.46 174Z" fill="url(#gem)" stroke="url(#gold)" stroke-width="2" stroke-linejoin="round" stroke-linecap="round" /><path d="M118.5 171.81L119.79 174L118.5 176.1Z" fill="#ffffff" stroke="none" stroke-width="1" stroke-linejoin="round" stroke-linecap="round" opacity=".25"/><path d="M117.21 174L118.5 171.81L118.5 176.1Z" fill="#03101c" stroke="none" stroke-width="1" stroke-linejoin="round" stroke-linecap="round" opacity=".32"/><path d="M117.6 173.76L118.5 172.2" fill="none" stroke="#ffffff" stroke-width="1.2" stroke-linejoin="round" stroke-linecap="round" opacity=".8"/><path d="M107.1532124826824 204Q107.9032124826824 208.25 109.9032124826824 209Q107.9032124826824 209.75 107.1532124826824 214Q106.4032124826824 209.75 104.4032124826824 209Q106.4032124826824 208.25 107.1532124826824 204Z" fill="#ffefd1" stroke="none" stroke-width="1" stroke-linejoin="round" stroke-linecap="round" /><path d="M107.1532124826824 206L109.19321248268241 209L107.1532124826824 212L105.1132124826824 209Z" fill="url(#gem)" stroke="url(#gold)" stroke-width="2" stroke-linejoin="round" stroke-linecap="round" /><path d="M107.1532124826824 206.81L108.44321248268241 209L107.1532124826824 211.1Z" fill="#ffffff" stroke="none" stroke-width="1" stroke-linejoin="round" stroke-linecap="round" opacity=".25"/><path d="M105.8632124826824 209L107.1532124826824 206.81L107.1532124826824 211.1Z" fill="#03101c" stroke="none" stroke-width="1" stroke-linejoin="round" stroke-linecap="round" opacity=".32"/><path d="M106.2532124826824 208.76L107.1532124826824 207.2" fill="none" stroke="#ffffff" stroke-width="1.2" stroke-linejoin="round" stroke-linecap="round" opacity=".8"/></g><g clip-path="url(#inner)" opacity=".23"><path d="M256 256L378.00 256.00" fill="none" stroke="#ae86f1" stroke-width="0.7" stroke-linejoin="round" stroke-linecap="round" /><circle cx="378.00" cy="256.00" r="2.1" fill="#eee0ff"/><path d="M256 256L342.27 342.27" fill="none" stroke="#ae86f1" stroke-width="0.7" stroke-linejoin="round" stroke-linecap="round" /><circle cx="342.27" cy="342.27" r="2.1" fill="#eee0ff"/><path d="M256 256L256.00 378.00" fill="none" stroke="#ae86f1" stroke-width="0.7" stroke-linejoin="round" stroke-linecap="round" /><circle cx="256.00" cy="378.00" r="2.1" fill="#eee0ff"/><path d="M256 256L169.73 342.27" fill="none" stroke="#ae86f1" stroke-width="0.7" stroke-linejoin="round" stroke-linecap="round" /><circle cx="169.73" cy="342.27" r="2.1" fill="#eee0ff"/><path d="M256 256L134.00 256.00" fill="none" stroke="#ae86f1" stroke-width="0.7" stroke-linejoin="round" stroke-linecap="round" /><circle cx="134.00" cy="256.00" r="2.1" fill="#eee0ff"/><path d="M256 256L169.73 169.73" fill="none" stroke="#ae86f1" stroke-width="0.7" stroke-linejoin="round" stroke-linecap="round" /><circle cx="169.73" cy="169.73" r="2.1" fill="#eee0ff"/><path d="M256 256L256.00 134.00" fill="none" stroke="#ae86f1" stroke-width="0.7" stroke-linejoin="round" stroke-linecap="round" /><circle cx="256.00" cy="134.00" r="2.1" fill="#eee0ff"/><path d="M256 256L342.27 169.73" fill="none" stroke="#ae86f1" stroke-width="0.7" stroke-linejoin="round" stroke-linecap="round" /><circle cx="342.27" cy="169.73" r="2.1" fill="#eee0ff"/><circle cx="256" cy="256" r="124" fill="none" stroke="url(#silver)" stroke-width="1" stroke-dasharray="3 8"/></g><path d="M430.0 251.3L433.196 256.0L430.0 260.7L426.804 256.0Z" fill="url(#gem)" stroke="url(#gold)" stroke-width="2" stroke-linejoin="round" stroke-linecap="round" /><path d="M430.0 252.569L432.021 256.0L430.0 259.29Z" fill="#ffffff" stroke="none" stroke-width="1" stroke-linejoin="round" stroke-linecap="round" opacity=".25"/><path d="M427.979 256.0L430.0 252.569L430.0 259.29Z" fill="#03101c" stroke="none" stroke-width="1" stroke-linejoin="round" stroke-linecap="round" opacity=".32"/><path d="M428.59 255.624L430.0 253.18" fill="none" stroke="#ffffff" stroke-width="1.2" stroke-linejoin="round" stroke-linecap="round" opacity=".8"/><path d="M343.0 401.99L346.196 406.69L343.0 411.39L339.804 406.69Z" fill="url(#gem)" stroke="url(#gold)" stroke-width="2" stroke-linejoin="round" stroke-linecap="round" /><path d="M343.0 403.259L345.021 406.69L343.0 409.98Z" fill="#ffffff" stroke="none" stroke-width="1" stroke-linejoin="round" stroke-linecap="round" opacity=".25"/><path d="M340.979 406.69L343.0 403.259L343.0 409.98Z" fill="#03101c" stroke="none" stroke-width="1" stroke-linejoin="round" stroke-linecap="round" opacity=".32"/><path d="M341.59 406.314L343.0 403.87" fill="none" stroke="#ffffff" stroke-width="1.2" stroke-linejoin="round" stroke-linecap="round" opacity=".8"/><path d="M169.0 401.99L172.196 406.69L169.0 411.39L165.804 406.69Z" fill="url(#gem)" stroke="url(#gold)" stroke-width="2" stroke-linejoin="round" stroke-linecap="round" /><path d="M169.0 403.259L171.021 406.69L169.0 409.98Z" fill="#ffffff" stroke="none" stroke-width="1" stroke-linejoin="round" stroke-linecap="round" opacity=".25"/><path d="M166.979 406.69L169.0 403.259L169.0 409.98Z" fill="#03101c" stroke="none" stroke-width="1" stroke-linejoin="round" stroke-linecap="round" opacity=".32"/><path d="M167.59 406.314L169.0 403.87" fill="none" stroke="#ffffff" stroke-width="1.2" stroke-linejoin="round" stroke-linecap="round" opacity=".8"/><path d="M82.0 251.3L85.196 256.0L82.0 260.7L78.804 256.0Z" fill="url(#gem)" stroke="url(#gold)" stroke-width="2" stroke-linejoin="round" stroke-linecap="round" /><path d="M82.0 252.569L84.021 256.0L82.0 259.29Z" fill="#ffffff" stroke="none" stroke-width="1" stroke-linejoin="round" stroke-linecap="round" opacity=".25"/><path d="M79.979 256.0L82.0 252.569L82.0 259.29Z" fill="#03101c" stroke="none" stroke-width="1" stroke-linejoin="round" stroke-linecap="round" opacity=".32"/><path d="M80.59 255.624L82.0 253.18" fill="none" stroke="#ffffff" stroke-width="1.2" stroke-linejoin="round" stroke-linecap="round" opacity=".8"/><path d="M169.0 100.61L172.196 105.31L169.0 110.01L165.804 105.31Z" fill="url(#gem)" stroke="url(#gold)" stroke-width="2" stroke-linejoin="round" stroke-linecap="round" /><path d="M169.0 101.879L171.021 105.31L169.0 108.60000000000001Z" fill="#ffffff" stroke="none" stroke-width="1" stroke-linejoin="round" stroke-linecap="round" opacity=".25"/><path d="M166.979 105.31L169.0 101.879L169.0 108.60000000000001Z" fill="#03101c" stroke="none" stroke-width="1" stroke-linejoin="round" stroke-linecap="round" opacity=".32"/><path d="M167.59 104.934L169.0 102.49000000000001" fill="none" stroke="#ffffff" stroke-width="1.2" stroke-linejoin="round" stroke-linecap="round" opacity=".8"/><path d="M343.0 100.61L346.196 105.31L343.0 110.01L339.804 105.31Z" fill="url(#gem)" stroke="url(#gold)" stroke-width="2" stroke-linejoin="round" stroke-linecap="round" /><path d="M343.0 101.879L345.021 105.31L343.0 108.60000000000001Z" fill="#ffffff" stroke="none" stroke-width="1" stroke-linejoin="round" stroke-linecap="round" opacity=".25"/><path d="M340.979 105.31L343.0 101.879L343.0 108.60000000000001Z" fill="#03101c" stroke="none" stroke-width="1" stroke-linejoin="round" stroke-linecap="round" opacity=".32"/><path d="M341.59 104.934L343.0 102.49000000000001" fill="none" stroke="#ffffff" stroke-width="1.2" stroke-linejoin="round" stroke-linecap="round" opacity=".8"/><path d="M256 57L266.2 72L256 87L245.8 72Z" fill="url(#gem)" stroke="url(#gold)" stroke-width="2" stroke-linejoin="round" stroke-linecap="round" /><path d="M256 61.05L262.45 72L256 82.5Z" fill="#ffffff" stroke="none" stroke-width="1" stroke-linejoin="round" stroke-linecap="round" opacity=".25"/><path d="M249.55 72L256 61.05L256 82.5Z" fill="#03101c" stroke="none" stroke-width="1" stroke-linejoin="round" stroke-linecap="round" opacity=".32"/><path d="M251.5 70.8L256 63.0" fill="none" stroke="#ffffff" stroke-width="1.2" stroke-linejoin="round" stroke-linecap="round" opacity=".8"/><path d="M256 411L262.8 421L256 431L249.2 421Z" fill="url(#gem)" stroke="url(#gold)" stroke-width="2" stroke-linejoin="round" stroke-linecap="round" /><path d="M256 413.7L260.3 421L256 428.0Z" fill="#ffffff" stroke="none" stroke-width="1" stroke-linejoin="round" stroke-linecap="round" opacity=".25"/><path d="M251.7 421L256 413.7L256 428.0Z" fill="#03101c" stroke="none" stroke-width="1" stroke-linejoin="round" stroke-linecap="round" opacity=".32"/><path d="M253.0 420.2L256 415.0" fill="none" stroke="#ffffff" stroke-width="1.2" stroke-linejoin="round" stroke-linecap="round" opacity=".8"/><path d="M212 412Q256 438 300 412M223 427Q256 446 289 427" fill="none" stroke="url(#gold)" stroke-width="2" stroke-linejoin="round" stroke-linecap="round" /><path d="M256.0 448.5Q256.525 451.475 257.925 452Q256.525 452.525 256.0 455.5Q255.475 452.525 254.075 452Q255.475 451.475 256.0 448.5Z" fill="#ffefd1" stroke="none" stroke-width="1" stroke-linejoin="round" stroke-linecap="round" /><g transform="translate(104.960 95.960) scale(0.59)"><g transform="translate(2 7)"><path d="M259.4 40.33l-93 60.37L64.03 58.34 92.67 165.4l-71.89 84.3 110.62 5.8 58.1 94.5 32.4-84.6 208.7 206.8 25.4-25.4-.1-.1 32.6-32.5-25.4-25.4-32.6 32.5-18.4-18.4 21.2-21.2-25.4-25.4-21.2 21.2-17-17 55.1-55.2-25.4-25.4-55.1 55.2-95.2-93.4 87.8-21.1-86.1-69.8 8.6-110.47z" fill="#03060d" stroke="#03060d" stroke-width="6" stroke-linejoin="round" stroke-linecap="round" /></g><path d="M259.4 40.33l-93 60.37L64.03 58.34 92.67 165.4l-71.89 84.3 110.62 5.8 58.1 94.5 32.4-84.6 208.7 206.8 25.4-25.4-.1-.1 32.6-32.5-25.4-25.4-32.6 32.5-18.4-18.4 21.2-21.2-25.4-25.4-21.2 21.2-17-17 55.1-55.2-25.4-25.4-55.1 55.2-95.2-93.4 87.8-21.1-86.1-69.8 8.6-110.47z" fill="url(#metal)" stroke="#0b101b" stroke-width="4.8" stroke-linejoin="round" stroke-linecap="round" /><g transform="translate(-1 -1.3)"><path d="M259.4 40.33l-93 60.37L64.03 58.34 92.67 165.4l-71.89 84.3 110.62 5.8 58.1 94.5 32.4-84.6 208.7 206.8 25.4-25.4-.1-.1 32.6-32.5-25.4-25.4-32.6 32.5-18.4-18.4 21.2-21.2-25.4-25.4-21.2 21.2-17-17 55.1-55.2-25.4-25.4-55.1 55.2-95.2-93.4 87.8-21.1-86.1-69.8 8.6-110.47z" fill="none" stroke="#eee0ff" stroke-width="1.4" stroke-linejoin="round" stroke-linecap="round" opacity=".65"/></g></g><path d="M208 198L213.44 206L208 214L202.56 206Z" fill="url(#gem)" stroke="url(#gold)" stroke-width="2" stroke-linejoin="round" stroke-linecap="round" /><path d="M208 200.16L211.44 206L208 211.6Z" fill="#ffffff" stroke="none" stroke-width="1" stroke-linejoin="round" stroke-linecap="round" opacity=".25"/><path d="M204.56 206L208 200.16L208 211.6Z" fill="#03101c" stroke="none" stroke-width="1" stroke-linejoin="round" stroke-linecap="round" opacity=".32"/><path d="M205.6 205.36L208 201.2" fill="none" stroke="#ffffff" stroke-width="1.2" stroke-linejoin="round" stroke-linecap="round" opacity=".8"/><path d="M276 286Q276.75 290.25 278.75 291Q276.75 291.75 276 296Q275.25 291.75 273.25 291Q275.25 290.25 276 286Z" fill="#ffefd1" stroke="none" stroke-width="1" stroke-linejoin="round" stroke-linecap="round" /></svg>